<?xml version="1.0" encoding="UTF-8"?>
<!DOCTYPE svg PUBLIC "-//W3C//DTD SVG 1.1//EN" "http://www.w3.org/Graphics/SVG/1.1/DTD/svg11.dtd">
<!-- Creator: CorelDRAW X7 -->
<svg xmlns="http://www.w3.org/2000/svg" xml:space="preserve" width="52.9168mm" height="28.6059mm" version="1.1" style="shape-rendering:geometricPrecision; text-rendering:geometricPrecision; image-rendering:optimizeQuality; fill-rule:evenodd; clip-rule:evenodd"
viewBox="0 0 612 331"
 xmlns:xlink="http://www.w3.org/1999/xlink">
 <defs>
  <style type="text/css">
   <![CDATA[
    .fil0 {fill:#CDB36D}
   ]]>
  </style>
 </defs>
 <g id="Camada_x0020_1">
  <metadata id="CorelCorpID_0Corel-Layer"/>
  <path class="fil0" d="M45 170l7 -2 -7 -2c0,0 0,0 0,-1 -1,-1 -5,-2 -10,-2l-21 -4c-8,-2 -12,-4 -13,-7 -1,-2 -1,-4 0,-6 2,-2 4,-4 7,-5 6,-2 13,-1 21,1 7,2 11,6 13,10l1 2 0 2 0 0c2,3 3,5 7,5l1 0c1,0 3,0 5,0l12 3 82 -22c5,1 18,4 21,6l-85 20 85 21c-3,2 -16,5 -21,6l-82 -22 -12 3c-2,0 -4,0 -5,0l-1 0c-4,0 -5,2 -7,5l0 0 0 1 -1 3c-2,4 -6,8 -13,10 -8,2 -15,2 -21,0 -3,-1 -5,-2 -7,-4 -1,-2 -1,-4 0,-6 1,-3 5,-5 13,-7l21 -4c5,-1 9,-1 10,-3 0,0 0,0 0,-1zm409 27l1 10 4 -9 -3 10 7 -8 -6 8 1 0 0 0 9 -6 -9 7 0 0 11 -3 -11 4 12 0 -12 1 11 4 -11 -3 9 6 -10 -5 6 8 -7 -8 3 10 -4 -9 -1 10 0 -10 -4 9 3 -10 -7 8c-1,2 -1,5 -1,8l0 78c0,8 1,13 2,15 2,2 4,3 8,3l3 0 0 3 -37 0 0 -3 3 0c4,0 6,-1 7,-4 1,-3 2,-7 2,-14l0 -37 -40 0 0 37c0,7 0,11 1,13 0,1 2,3 3,4 2,1 4,1 5,1l3 0 0 3 -37 0 0 -3 3 0c4,0 7,-1 8,-4 1,-2 2,-7 2,-14l0 -78c0,-7 -1,-11 -1,-13 -1,-1 -2,-3 -4,-4 -1,-1 -3,-1 -5,-1l-3 0 0 -3 37 0 0 3 -3 0c-3,0 -5,1 -7,3 -1,2 -2,7 -2,15l0 35 40 0 0 -35c0,-7 0,-11 -1,-13 -1,-1 -2,-2 -3,-4 -2,-1 -4,-1 -5,-1l-3 0 0 -3 23 0 -4 -2 6 2 3 0 -7 -6 9 6 0 0 -6 -8 8 8 -3 -10 4 9 0 -10zm-8 24l6 -8 -5 2c0,2 -1,3 -1,6zm2 -7l3 -2 -1 0c-1,1 -2,1 -2,2l0 0zm-397 -17l0 10 5 -9 -4 10 8 -8 -7 8 10 -6 -9 7 11 -3 -11 4 12 0 -12 1 11 4 -11 -3 9 6 -10 -5 7 8 -8 -8 4 10 -4 -8 0 33 -3 0c-1,-12 -4,-20 -8,-26 -5,-5 -10,-7 -16,-7 -4,0 -7,1 -10,5 -3,3 -5,8 -5,13 0,3 1,6 3,10 2,4 8,9 19,17 6,4 11,8 14,11 3,3 6,7 8,12 2,4 3,9 3,15 0,9 -2,17 -7,23 -6,7 -12,10 -20,10 -4,0 -9,-2 -15,-4 -4,-2 -7,-3 -8,-3 -2,0 -3,2 -4,7l-2 0 0 -41 2 0c3,23 12,34 26,34 5,0 9,-2 12,-5 3,-4 5,-9 5,-14 0,-7 -2,-12 -7,-17 -11,-9 -21,-17 -28,-24 -7,-6 -11,-15 -11,-25 0,-9 2,-17 7,-22 5,-6 11,-9 18,-9 4,0 8,1 11,2l11 0 -11 -4 12 3 -10 -7 10 6 -6 -8 7 8 -3 -10 4 9 1 -10zm-3 16l-3 1c1,0 2,0 3,-1zm-4 1l4 -2 -6 1c1,1 1,1 2,1zm-3 -1l6 -2 -10 -1c1,1 2,2 3,2 0,0 1,1 1,1zm183 -213l1 10 4 -9 -3 10 8 -8 -7 8 10 -5 -9 6 11 -3 -11 4 12 0 -12 1 11 4 -11 -3 9 6 -10 -5 7 8 -8 -8 3 10 -4 -9 -1 10 0 -10 -4 9 3 -10 -8 8 7 -8 -8 4c-1,3 -1,7 -1,11l0 98 -2 0 -56 -93 0 71c0,8 1,12 2,14 2,2 4,3 7,3l3 0 0 3 -29 0 0 -3 3 0c2,0 4,-1 6,-3 2,-2 3,-6 3,-14l0 -81c-3,-4 -6,-7 -8,-9 -3,-2 -6,-3 -9,-3l0 -3 23 0 51 87 0 -67c0,-7 0,-12 -2,-14 -1,-2 -4,-3 -7,-3l-2 0 0 -3 20 0 -6 -2 8 2 2 0 -8 -5 10 5 -7 -8 8 8 -3 -10 4 9 0 -10zm-10 20l7 -5 -5 1c0,1 -1,1 -1,2 -1,1 -1,1 -1,2zm72 101l-17 8 -2 0 0 -14c-8,10 -14,14 -20,14 -10,0 -14,-9 -14,-26l0 -31c0,-4 -1,-7 -2,-8 -2,-2 -4,-3 -8,-3l0 -2 20 0 0 46c0,10 3,15 9,15 4,0 9,-3 15,-10l0 -38c0,-4 -1,-7 -2,-8 -1,-2 -4,-2 -8,-3l0 -2 20 0 0 41c0,8 0,13 1,16 0,2 1,4 3,4 1,0 3,-1 4,-2l1 3zm67 6l-28 0 0 -2 1 0c2,0 4,-1 5,-2 1,-1 2,-2 2,-3 1,-1 1,-4 1,-8l0 -28c0,-12 -3,-18 -9,-18 -5,0 -10,3 -15,10l0 36c0,5 1,8 2,10 1,2 3,3 8,3l0 2 -29 0 0 -2 2 0c3,0 4,-1 5,-3 1,-2 2,-5 2,-10l0 -26c0,-8 0,-13 -1,-16 0,-2 -2,-3 -3,-3 -2,0 -3,0 -5,1l-1 -3 18 -8 2 0 0 14c7,-10 13,-14 19,-14 10,0 15,8 15,25l0 30c0,5 1,8 2,10 1,2 3,3 7,3l0 2zm54 -25c-1,8 -4,14 -8,20 -5,5 -10,7 -15,7 -8,0 -14,-3 -18,-10 -5,-7 -7,-15 -7,-25 0,-11 2,-20 7,-27 4,-7 11,-10 19,-10 7,0 13,2 16,8 4,6 6,12 6,20l-39 0c0,9 1,17 5,23 4,6 9,9 15,9 8,0 14,-5 17,-16l2 1zm-13 -22c-1,-12 -5,-18 -13,-18 -3,0 -6,2 -9,5 -3,3 -4,8 -4,13l26 0zm25 48l-2 0 0 -24 2 0c2,14 8,21 18,21 2,0 4,-1 6,-3 2,-1 3,-4 3,-7 0,-4 -1,-8 -5,-11 -5,-4 -12,-8 -20,-15 -3,-3 -4,-7 -4,-13 0,-5 1,-10 5,-14 3,-4 7,-5 12,-5 2,0 5,0 8,1 2,1 4,1 4,1 1,0 2,0 3,-2l2 0 0 23 -2 0c-3,-13 -8,-19 -15,-19 -3,0 -5,1 -7,2 -2,2 -3,4 -3,7 0,5 3,10 10,14l9 5c8,5 13,11 13,20 0,5 -2,10 -6,14 -4,4 -8,6 -14,6 -3,0 -7,0 -11,-2 -2,0 -3,-1 -4,-1 -1,0 -1,1 -2,2zm-322 187c-3,10 -8,15 -14,15 -8,0 -12,-7 -12,-19l0 -46 -9 0 0 -2c8,-4 14,-13 18,-26l2 0 0 23 14 0 0 5 -14 0 0 45c0,7 2,11 6,11 3,0 5,-2 7,-6l2 0zm69 7l-17 9 -3 0 0 -15c-8,10 -15,15 -20,15 -10,0 -15,-9 -15,-27l0 -31c0,-4 -1,-7 -2,-8 -2,-2 -4,-2 -8,-2l0 -3 20 0 0 46c0,10 4,15 10,15 4,0 9,-3 15,-9l0 -39c0,-4 -1,-7 -2,-8 -1,-2 -4,-2 -8,-2l0 -3 20 0 0 41c0,8 0,13 1,16 1,2 2,4 4,4 1,0 2,-1 4,-2l1 3zm66 0l-17 9 -3 0 0 -10c-6,6 -11,10 -18,10 -7,0 -13,-4 -17,-11 -4,-7 -6,-15 -6,-23 0,-9 2,-18 7,-27 5,-8 12,-12 21,-12 5,0 9,2 13,5l0 -12c0,-9 -1,-14 -1,-16 -1,-2 -2,-3 -4,-3 -1,0 -2,0 -4,1l-1 -3 17 -8 3 0 0 79c0,8 0,13 1,16 1,2 2,4 4,4 1,0 2,-1 4,-2l1 3zm-20 -7l0 -35c0,-5 -2,-9 -4,-12 -3,-4 -6,-6 -10,-6 -4,0 -8,3 -11,8 -3,5 -5,12 -5,21 0,9 2,16 5,22 3,6 8,9 13,9 4,0 8,-2 12,-7zm45 -86c0,6 -2,8 -6,8 -5,0 -7,-2 -7,-8 0,-5 2,-7 7,-7 4,0 6,2 6,7zm8 99l-29 0 0 -2c4,0 6,-1 7,-3 2,-1 2,-5 2,-10l0 -27c0,-7 0,-13 0,-15 -1,-2 -2,-3 -4,-3 -2,0 -3,0 -5,1l-1 -3 18 -8 3 0 0 55c0,5 0,8 2,10 1,2 3,3 7,3l0 2zm64 -35c0,10 -3,18 -8,26 -5,8 -12,12 -21,12 -9,0 -16,-4 -20,-12 -5,-7 -8,-15 -8,-24 0,-10 3,-19 8,-26 6,-8 12,-11 21,-11 9,0 15,3 20,11 5,7 8,15 8,24zm-12 6c0,-8 -1,-14 -2,-19 -2,-6 -4,-10 -7,-13 -3,-3 -6,-4 -9,-4 -5,0 -8,2 -11,6 -3,5 -4,11 -4,19 0,10 2,19 5,26 3,7 8,11 14,11 9,0 14,-9 14,-26zm199 20c-4,7 -9,11 -13,11 -5,0 -7,-4 -7,-11 -6,4 -9,8 -11,9 -2,1 -5,2 -8,2 -5,0 -8,-2 -10,-6 -3,-3 -4,-7 -4,-12 0,-2 1,-5 2,-8 1,-3 4,-6 9,-9 4,-4 12,-8 22,-12l0 -3c0,-12 -4,-18 -11,-18 -3,0 -5,1 -6,3 -2,1 -3,3 -3,6l0 4c0,5 -2,7 -5,7 -4,0 -6,-2 -6,-7 0,-5 3,-9 7,-13 4,-3 9,-4 15,-4 5,0 9,1 12,3 3,1 5,4 6,7 1,2 1,7 1,13l0 24c0,6 0,10 1,12 0,2 1,3 2,3 2,0 4,-2 7,-6l0 5zm-20 -5l0 -26c-10,4 -16,7 -18,11 -3,3 -4,6 -4,10 0,3 1,6 2,8 2,3 4,4 7,4 3,0 7,-2 13,-7zm47 -85c0,6 -3,8 -7,8 -4,0 -6,-2 -6,-8 0,-5 2,-7 6,-7 4,0 7,2 7,7zm7 99l-28 0 0 -2c3,0 6,-1 7,-3 1,-1 2,-5 2,-10l0 -27c0,-7 0,-13 -1,-15 0,-2 -2,-3 -4,-3 -1,0 -2,0 -4,1l-1 -3 18 -8 2 0 0 55c0,5 1,8 2,10 1,2 4,3 7,3l0 2zm26 -49l0 33c0,5 1,8 2,10 1,3 4,4 8,4l0 2 -30 0 0 -2c3,0 5,-1 6,-2 2,0 2,-2 3,-3 0,-1 0,-4 0,-8l0 -27c0,-7 0,-12 0,-14 -1,-3 -2,-4 -4,-4 -2,0 -3,0 -5,1l0 -3 17 -8 3 0 0 15c5,-10 10,-15 15,-15 2,0 4,0 6,2 1,1 2,3 2,6 0,5 -2,7 -6,7 -1,0 -2,-1 -5,-3 -2,-1 -3,-2 -4,-2 -2,0 -5,4 -8,11zm20 -122l1 9c0,0 0,0 0,0l4 -9 -3 10c0,0 0,0 0,0l7 -8 -6 9 0 0 10 -6 -9 7 11 -3 -11 3 12 1 -12 0 11 4 -11 -3 9 7 -10 -6 6 9 -7 -8 3 10 -4 -10 -1 10 0 -10 -4 10 3 -10 -8 8 7 -9 -10 6 9 -7 -11 3 11 -4 -9 0 -428 0c-1,0 -2,-1 -2,-2l0 0c0,-1 1,-2 2,-2l426 0 0 0 1 0 7 0 -6 -4 7 4 1 0 -5 -7 7 7 0 0 -2 -9 3 9 1 0 0 -9zm-568 0l-15 -2c-5,-1 -8,-2 -8,-4 -1,-1 -1,-3 0,-4 1,-1 3,-1 5,-2 5,-2 10,-2 16,0 7,2 10,5 12,8 1,2 0,4 -2,5 -2,0 -4,0 -8,-1zm0 22l-15 3c-5,1 -8,2 -8,4 -1,1 -1,2 0,3 1,1 3,2 5,3 5,2 10,1 16,0 7,-2 10,-5 12,-8 1,-3 0,-4 -2,-5 -2,0 -4,0 -8,0z"/>
 </g>
</svg>
